<?xml version="1.0" standalone="no"?>
<!DOCTYPE svg PUBLIC "-//W3C//DTD SVG 20010904//EN"
 "http://www.w3.org/TR/2001/REC-SVG-20010904/DTD/svg10.dtd">
<svg version="1.0" xmlns="http://www.w3.org/2000/svg"
 width="320.000000pt" height="240.000000pt" viewBox="0 0 320.000000 240.000000"
 preserveAspectRatio="xMidYMid meet">
<metadata>
Created by potrace 1.16, written by Peter Selinger 2001-2019
</metadata>
<g transform="translate(0.000000,240.000000) scale(0.100000,-0.100000)"
fill="#1F59B2" stroke="none">
<path d="M0 1200 l0 -1200 1600 0 1600 0 0 1200 0 1200 -1600 0 -1600 0 0
-1200z m1115 372 l240 -87 3 -282 2 -281 -42 -17 c-123 -49 -453 -165 -470
-165 -24 0 -487 167 -505 182 -10 8 -13 76 -13 279 0 267 0 269 23 283 36 24
491 185 507 180 8 -2 123 -44 255 -92z m1495 5 l255 -93 3 -276 c2 -219 0
-278 -11 -286 -19 -16 -477 -182 -502 -182 -25 0 -483 166 -502 182 -11 8 -13
67 -11 287 l3 276 250 91 c138 51 252 93 255 93 3 0 120 -41 260 -92z m-972
-284 l3 -62 62 -3 c62 -3 62 -3 62 -33 0 -30 0 -30 -62 -33 l-62 -3 -3 -56
c-5 -102 -68 -99 -68 3 l0 53 -56 3 c-40 2 -60 8 -67 20 -19 29 9 48 69 48
l54 0 0 49 c0 68 7 83 39 79 25 -3 26 -6 29 -65z"/>
<path d="M660 1528 c-91 -33 -169 -64 -173 -68 -4 -4 74 -37 175 -74 l183 -67
187 68 c103 37 184 71 180 74 -14 12 -350 129 -368 128 -11 0 -93 -27 -184
-61z"/>
<path d="M402 1188 l3 -220 200 -73 200 -73 3 215 c1 119 0 218 -2 221 -3 2
-58 24 -123 47 -65 24 -155 57 -201 73 l-82 31 2 -221z"/>
<path d="M1073 1328 l-193 -71 0 -219 c0 -206 1 -220 18 -213 14 6 279 102
375 137 l27 10 0 214 c0 197 -1 214 -17 213 -10 0 -105 -32 -210 -71z"/>
<path d="M2162 1526 c-95 -35 -175 -65 -177 -68 -2 -2 80 -34 183 -71 l187
-67 189 68 c135 50 183 71 170 76 -99 39 -349 126 -362 126 -9 -1 -95 -29
-190 -64z"/>
<path d="M1912 1187 l3 -220 200 -74 c110 -40 201 -73 203 -73 1 0 2 99 2 220
0 121 -1 220 -3 220 -2 0 -94 33 -205 74 l-202 74 2 -221z"/>
<path d="M2596 1333 c-109 -40 -201 -74 -203 -76 -2 -2 -2 -101 -1 -220 l3
-215 200 73 200 72 3 112 c1 61 1 160 0 219 l-3 108 -199 -73z"/>
</g>
</svg>
