<svg id="Layer_1" enable-background="new 0 0 512 512" height="512" viewBox="0 0 512 512" width="512" xmlns="http://www.w3.org/2000/svg"><g><g><g><path d="m0 31.936h512v448.129h-512z" fill="#fff6cc"/><path d="m470.793 31.936h41.207v448.129h-41.207z" fill="#fff1b5"/><path d="m0 31.936h512v58.892h-512z" fill="#7b7b7f"/><path d="m470.793 31.936h41.207v58.892h-41.207z" fill="#6b6b73"/><g><path d="m35.461 69.108c10.293 0 10.31-15.453 0-15.453-10.294 0-10.311 15.453 0 15.453z" fill="#fff"/></g><g><path d="m63.104 69.108c10.293 0 10.31-15.453 0-15.453-10.293 0-10.31 15.453 0 15.453z" fill="#fff"/></g><g><path d="m90.747 69.108c10.293 0 10.31-15.453 0-15.453-10.293 0-10.31 15.453 0 15.453z" fill="#fff"/></g></g><g><g><g><path d="m317.124 219.005h122.248v188.089h-122.248z" fill="#c4f1ff"/></g><path d="m317.124 177.019h122.248v41.985h-122.248z" fill="#fd0"/></g><g><g><path d="m194.876 177.019h122.248v258.49h-122.248z" fill="#80e1ff"/></g><path d="m275.917 177.019h41.207v258.49h-41.207z" fill="#59d8ff"/><path d="m194.879 135.034h122.248v41.985h-122.248z" fill="#00cfe9"/><path d="m275.92 135.034h41.207v41.985h-41.207z" fill="#00bfd6"/></g><g><g><path d="m72.628 219.005h122.248v188.089h-122.248z" fill="#c4f1ff"/></g><path d="m72.628 177.019h122.248v41.985h-122.248z" fill="#ff7de9"/></g><path d="m142.965 338.506c-3.433-1.214-9.213-2.624-9.857-4.418-.323-.9.303-1.677 1.134-2.122 2.128-1.139 5.069.541 5.069.541s7.533 4.748 11.782-.961c4.296-5.771-1.306-10.399-1.306-10.399-.437-.403-2.745-2.417-6.487-3.753-.328-3.965-3.644-7.083-7.694-7.083-4.213 0-7.633 3.375-7.718 7.567-5.112 2.25-8.845 6.966-9.932 12.733-1.138 6.041.899 11.946 5.318 15.412 3.9 3.058 9.293 5.196 14.54 7.051 1.22.431 2.421 1.148 2.076 3.198-.228 1.358-1.398 3.661-4.336 3.681-3.884.028-4.535-.074-7.233-1.839-3.572-2.336-8.36-1.335-10.696 2.237-2.336 3.571-1.334 8.36 2.237 10.696 3.02 1.975 5.491 3.083 8.051 3.689.35 3.942 3.658 7.034 7.691 7.034 4.267 0 7.726-3.459 7.726-7.726v-.244c6.073-2.589 10.644-8.104 11.797-14.966 1.524-9.049-3.364-17.218-12.162-20.328z" fill="#80e1ff"/><g><g fill="#c4f1ff"><path d="m278.22 207.066h-44.44c-4.267 0-7.726 3.459-7.726 7.726s3.459 7.726 7.726 7.726h44.441c4.267 0 7.726-3.459 7.726-7.726s-3.46-7.726-7.727-7.726z"/><path d="m278.22 238.315h-44.44c-4.267 0-7.726 3.459-7.726 7.726s3.459 7.726 7.726 7.726h44.441c4.267 0 7.726-3.459 7.726-7.726s-3.46-7.726-7.727-7.726z"/><path d="m278.22 269.564h-44.44c-4.267 0-7.726 3.459-7.726 7.726s3.459 7.726 7.726 7.726h44.441c4.267 0 7.726-3.459 7.726-7.726s-3.46-7.726-7.727-7.726z"/><path d="m278.22 300.813h-44.44c-4.267 0-7.726 3.459-7.726 7.726s3.459 7.726 7.726 7.726h44.441c4.267 0 7.726-3.459 7.726-7.726s-3.46-7.726-7.727-7.726z"/></g><path d="m155.972 245.698h-44.441c-4.267 0-7.726 3.459-7.726 7.726s3.459 7.726 7.726 7.726h44.441c4.267 0 7.726-3.459 7.726-7.726s-3.459-7.726-7.726-7.726z" fill="#80e1ff"/><path d="m155.972 276.947h-44.441c-4.267 0-7.726 3.459-7.726 7.726s3.459 7.726 7.726 7.726h44.441c4.267 0 7.726-3.459 7.726-7.726.001-4.267-3.459-7.726-7.726-7.726z" fill="#80e1ff"/><path d="m355.751 261.151h44.441c4.267 0 7.726-3.459 7.726-7.726s-3.459-7.726-7.726-7.726h-44.441c-4.267 0-7.726 3.459-7.726 7.726s3.459 7.726 7.726 7.726z" fill="#80e1ff"/><path d="m400.193 276.947h-44.441c-4.267 0-7.726 3.459-7.726 7.726s3.459 7.726 7.726 7.726h44.441c4.267 0 7.726-3.459 7.726-7.726s-3.459-7.726-7.726-7.726z" fill="#80e1ff"/></g></g></g><path d="m263.082 367.292c-3.433-1.214-9.213-2.624-9.857-4.418-.323-.9.303-1.677 1.134-2.122 2.128-1.139 5.069.541 5.069.541s7.533 4.749 11.782-.961c4.296-5.771-1.306-10.399-1.306-10.399-.437-.403-2.745-2.417-6.487-3.753-.328-3.965-3.644-7.083-7.694-7.083-4.213 0-7.633 3.374-7.718 7.567-5.112 2.25-8.845 6.966-9.932 12.733-1.138 6.041.899 11.946 5.318 15.412 3.9 3.058 9.293 5.196 14.54 7.051 1.22.431 2.421 1.148 2.076 3.198-.228 1.358-1.398 3.661-4.336 3.681-3.884.028-4.535-.074-7.233-1.839-3.572-2.336-8.36-1.335-10.696 2.237-2.336 3.571-1.334 8.36 2.237 10.696 3.02 1.975 5.491 3.083 8.051 3.689.35 3.942 3.658 7.034 7.691 7.034 4.267 0 7.726-3.459 7.726-7.726v-.244c6.073-2.589 10.644-8.104 11.797-14.966 1.525-9.048-3.364-17.218-12.162-20.328z" fill="#c4f1ff"/><path d="m385.33 338.506c-3.433-1.214-9.213-2.624-9.857-4.418-.323-.9.303-1.677 1.134-2.122 2.128-1.139 5.069.541 5.069.541s7.533 4.748 11.782-.961c4.296-5.771-1.306-10.399-1.306-10.399-.437-.403-2.745-2.417-6.487-3.753-.328-3.965-3.644-7.083-7.694-7.083-4.213 0-7.633 3.375-7.718 7.567-5.112 2.25-8.845 6.966-9.932 12.733-1.138 6.041.899 11.946 5.318 15.412 3.9 3.058 9.293 5.196 14.54 7.051 1.22.431 2.421 1.148 2.076 3.198-.228 1.358-1.398 3.661-4.336 3.681-3.884.028-4.535-.074-7.233-1.839-3.572-2.336-8.36-1.335-10.696 2.237s-1.334 8.36 2.237 10.696c3.02 1.975 5.491 3.083 8.051 3.689.35 3.942 3.658 7.034 7.691 7.034 4.267 0 7.726-3.459 7.726-7.726v-.244c6.073-2.589 10.644-8.104 11.797-14.966 1.525-9.049-3.364-17.218-12.162-20.328z" fill="#80e1ff"/></g></svg>